<svg xmlns="http://www.w3.org/2000/svg" width="16" height="17" viewBox="0 0 16 17" fill="none">
  <g clip-path="url(#clip0_15_344)">
    <path d="M14.3984 15.2297H1.62024C1.59211 15.2297 1.56555 15.2281 1.53742 15.2266C1.57961 15.2328 1.62024 15.2375 1.66242 15.2438C1.61399 15.2375 1.56711 15.225 1.52024 15.2063L1.63274 15.2531C1.60461 15.2406 1.57805 15.225 1.55149 15.211C1.47492 15.1688 1.59367 15.2391 1.58899 15.2422C1.58586 15.2438 1.55461 15.211 1.55149 15.2078C1.54211 15.1985 1.5343 15.1875 1.52336 15.1782C1.48586 15.1422 1.58899 15.2781 1.55305 15.2156C1.53586 15.186 1.51867 15.1563 1.50461 15.125L1.55149 15.2375C1.53274 15.1906 1.5218 15.1453 1.51399 15.0953C1.52024 15.1375 1.52492 15.1781 1.53117 15.2203C1.52336 15.136 1.52805 15.05 1.52805 14.9656V8.52346C1.52805 8.22346 1.52492 7.9219 1.52805 7.6219C1.52805 7.5969 1.52961 7.57346 1.53117 7.54846C1.52492 7.59065 1.52024 7.63127 1.51399 7.67346C1.52024 7.62502 1.53274 7.57815 1.55149 7.53127L1.50461 7.64377C1.51711 7.61565 1.53274 7.58909 1.5468 7.56252C1.58899 7.48596 1.51867 7.60471 1.51555 7.60002C1.51399 7.5969 1.5468 7.56565 1.54992 7.56252C1.5593 7.55315 1.57024 7.54534 1.57961 7.5344C1.61555 7.4969 1.47961 7.60002 1.54211 7.56409C1.5718 7.5469 1.60149 7.52971 1.63274 7.51565L1.52024 7.56252C1.56711 7.54377 1.61242 7.53284 1.66242 7.52502C1.62024 7.53127 1.57961 7.53596 1.53742 7.54221C1.66711 7.52971 1.80149 7.53909 1.93117 7.53909H14.3796C14.4077 7.53909 14.4343 7.54065 14.4624 7.54221C14.4202 7.53596 14.3796 7.53127 14.3374 7.52502C14.3859 7.53127 14.4327 7.54377 14.4796 7.56252L14.3671 7.51565C14.3952 7.52815 14.4218 7.54377 14.4484 7.55784C14.5249 7.60002 14.4062 7.52971 14.4109 7.52659C14.414 7.52502 14.4452 7.55784 14.4484 7.56096C14.4577 7.57034 14.4655 7.58127 14.4765 7.59065C14.514 7.62659 14.4109 7.49065 14.4468 7.55315C14.464 7.58284 14.4812 7.61252 14.4952 7.64377L14.4484 7.53127C14.4671 7.57815 14.478 7.62346 14.4859 7.67346C14.4796 7.63127 14.4749 7.59065 14.4687 7.54846C14.4765 7.63284 14.4718 7.71877 14.4718 7.80315V14.2453C14.4718 14.5453 14.4749 14.8469 14.4718 15.1469C14.4718 15.1719 14.4702 15.1953 14.4687 15.2203C14.4749 15.1781 14.4796 15.1375 14.4859 15.0953C14.4796 15.1438 14.4671 15.1906 14.4484 15.2375L14.4952 15.125C14.4827 15.1531 14.4671 15.1797 14.453 15.2063C14.4109 15.2828 14.4812 15.1641 14.4843 15.1688C14.4859 15.1719 14.453 15.2031 14.4499 15.2063C14.4405 15.2156 14.4296 15.2235 14.4202 15.2344C14.3843 15.2719 14.5202 15.1688 14.4577 15.2047C14.428 15.2219 14.3984 15.2391 14.3671 15.2531L14.4796 15.2063C14.4327 15.225 14.3874 15.236 14.3374 15.2438C14.3796 15.2375 14.4202 15.2328 14.4624 15.2266C14.4405 15.2281 14.4202 15.2297 14.3984 15.2297C14.153 15.2344 13.9187 15.4422 13.9296 15.6985C13.9405 15.9485 14.1359 16.1719 14.3984 16.1672C14.9546 16.1563 15.3999 15.7141 15.4093 15.1563V7.63284C15.4077 7.27815 15.239 6.96721 14.9484 6.76721C14.7312 6.61721 14.4843 6.60315 14.2343 6.60315H1.66086C1.62805 6.60315 1.59367 6.60315 1.56086 6.60471C1.0218 6.63909 0.601487 7.0719 0.593674 7.61565C0.590549 7.75784 0.593674 7.90159 0.593674 8.04377V13.5031C0.593674 14.0485 0.590549 14.5938 0.593674 15.1391C0.595237 15.4985 0.770237 15.8188 1.0718 16.0141C1.23742 16.1219 1.43742 16.1656 1.63274 16.1672H14.403C14.6484 16.1672 14.8827 15.9516 14.8718 15.6985C14.8546 15.4453 14.6609 15.2297 14.3984 15.2297Z" fill="white"/>
    <path d="M13.6688 6.74222C13.5157 6.6141 13.3626 6.48597 13.2095 6.35628C12.8438 6.05003 12.4782 5.74222 12.1126 5.43597C11.6688 5.06253 11.2235 4.69066 10.7798 4.31722C10.397 3.99691 10.0142 3.67503 9.63291 3.35472C9.44541 3.19847 9.25947 3.0391 9.07197 2.88441C9.06885 2.88285 9.06728 2.87972 9.06416 2.87816C8.96728 2.79691 8.86416 2.74066 8.73291 2.74066C8.61729 2.74066 8.48135 2.79222 8.40166 2.87816C8.24229 3.0516 8.20166 3.37347 8.40166 3.54066C8.55479 3.66878 8.70791 3.79691 8.86103 3.9266C9.22666 4.23285 9.59229 4.54066 9.95791 4.84691C10.4017 5.22035 10.847 5.59222 11.2907 5.96566C11.6735 6.28597 12.0563 6.60785 12.4376 6.92816C12.6251 7.08441 12.811 7.24378 12.9985 7.39847C13.0017 7.40003 13.0032 7.40316 13.0063 7.40472C13.1032 7.48597 13.2063 7.54222 13.3376 7.54222C13.4532 7.54222 13.5892 7.49066 13.6688 7.40472C13.8282 7.23128 13.8704 6.90941 13.6688 6.74222ZM6.94229 2.86566C6.78916 2.99378 6.63604 3.12191 6.48291 3.2516C6.11572 3.55941 5.74854 3.86878 5.37979 4.1766C4.93447 4.55003 4.49072 4.92347 4.04541 5.29535C3.66104 5.61722 3.27666 5.94066 2.89229 6.26253C2.70635 6.41878 2.5126 6.57035 2.33135 6.73285C2.32822 6.73441 2.32666 6.73753 2.32354 6.7391C2.23604 6.81253 2.18604 6.96097 2.18604 7.07035C2.18604 7.18597 2.2376 7.32191 2.32354 7.4016C2.4126 7.48285 2.52979 7.54378 2.65479 7.5391C2.78447 7.53285 2.88604 7.48597 2.98604 7.4016C3.13916 7.27347 3.29229 7.14535 3.44541 7.01566C3.8126 6.70785 4.17979 6.39847 4.54854 6.09066C4.99385 5.71722 5.4376 5.34378 5.88291 4.97191C6.26729 4.65003 6.65166 4.3266 7.03604 4.00472C7.22197 3.84847 7.41572 3.69691 7.59697 3.53441C7.6001 3.53285 7.60166 3.52972 7.60479 3.52816C7.69229 3.45472 7.74229 3.30628 7.74229 3.19691C7.74229 3.08128 7.69072 2.94535 7.60479 2.86566C7.51572 2.78441 7.39854 2.72347 7.27354 2.72816C7.14385 2.73441 7.04229 2.78285 6.94229 2.86566Z" fill="white"/>
    <path d="M8.39231 2.7563C8.39231 2.79224 8.38918 2.82818 8.38606 2.86568C8.39231 2.82349 8.39699 2.78287 8.40324 2.74068C8.39231 2.82037 8.37199 2.89537 8.34074 2.9688L8.38762 2.8563C8.36574 2.9063 8.33918 2.95318 8.30949 2.99849C8.25168 3.08443 8.37981 2.92349 8.32199 2.98443C8.30637 3.00005 8.29231 3.01724 8.27668 3.03287C8.26106 3.04849 8.24387 3.06255 8.22668 3.07818C8.16262 3.13443 8.31731 3.01724 8.25012 3.05943C8.20481 3.08755 8.16106 3.11412 8.11106 3.13599L8.22356 3.08912C8.15168 3.1188 8.07824 3.13912 8.00168 3.15162C8.04387 3.14537 8.08449 3.14068 8.12668 3.13443C8.04699 3.1438 7.96887 3.1438 7.89074 3.13443C7.93293 3.14068 7.97356 3.14537 8.01574 3.15162C7.93918 3.14068 7.86731 3.12037 7.79699 3.09068L7.90949 3.13755C7.86106 3.11568 7.81574 3.09224 7.77199 3.06255C7.72981 3.03443 7.72043 3.00005 7.79543 3.08287C7.77824 3.06412 7.75637 3.04849 7.73762 3.0313C7.71887 3.01255 7.70168 2.9938 7.68449 2.97505C7.63137 2.91724 7.74856 3.07037 7.70481 2.99849C7.67512 2.95005 7.64699 2.90162 7.62356 2.84849L7.67043 2.96099C7.64074 2.88912 7.62199 2.81568 7.61106 2.73755C7.61731 2.77974 7.62199 2.82037 7.62824 2.86255C7.62043 2.79068 7.62043 2.72037 7.62824 2.64849C7.62199 2.69068 7.61731 2.7313 7.61106 2.77349C7.62199 2.69693 7.64074 2.62349 7.66887 2.55318L7.62199 2.66568C7.64387 2.61568 7.66887 2.56724 7.69856 2.52193C7.76106 2.42818 7.63449 2.59224 7.68606 2.53599C7.70168 2.5188 7.71731 2.50005 7.73449 2.48443C7.75168 2.46724 7.76887 2.45318 7.78606 2.43599C7.84231 2.38443 7.67824 2.51099 7.77199 2.44849C7.81731 2.4188 7.86574 2.3938 7.91574 2.37193L7.80324 2.4188C7.87512 2.39068 7.94699 2.37037 8.02356 2.36099C7.98137 2.36724 7.94074 2.37193 7.89856 2.37818C7.97043 2.37037 8.04074 2.37037 8.11262 2.37818C8.07043 2.37193 8.02981 2.36724 7.98762 2.36099C8.06418 2.37193 8.13762 2.39068 8.20793 2.4188L8.09543 2.37193C8.14543 2.3938 8.19387 2.4188 8.23918 2.44849C8.33293 2.51099 8.16887 2.38443 8.22512 2.43599C8.24231 2.45162 8.26106 2.46724 8.27668 2.48443C8.29387 2.50162 8.30793 2.5188 8.32512 2.53599C8.37668 2.59224 8.25012 2.42818 8.31262 2.52193C8.34231 2.56724 8.36731 2.61568 8.38918 2.66568L8.34231 2.55318C8.37043 2.62505 8.39074 2.69693 8.40012 2.77349C8.39387 2.7313 8.38918 2.69068 8.38293 2.64849C8.38918 2.68443 8.39231 2.72037 8.39231 2.7563C8.39543 3.00162 8.60637 3.23599 8.86106 3.22505C9.11262 3.21412 9.33293 3.0188 9.32981 2.7563C9.32356 2.26568 9.04387 1.77662 8.58918 1.57037C8.31731 1.44693 8.04699 1.41255 7.75324 1.45943C7.51106 1.49849 7.28762 1.62505 7.10637 1.78599C6.72199 2.12818 6.57199 2.7313 6.76418 3.21099C6.87668 3.49224 7.05637 3.72349 7.31418 3.88599C7.53293 4.02505 7.81887 4.10005 8.07824 4.07818C8.40481 4.05162 8.71262 3.92662 8.94543 3.69068C9.19074 3.44224 9.32512 3.1063 9.32981 2.75787C9.33293 2.51255 9.11106 2.27818 8.86106 2.28912C8.60481 2.29849 8.39699 2.4938 8.39231 2.7563Z" fill="white"/>
  </g>
  <defs>
    <clipPath id="clip0_15_344">
      <rect width="16" height="16" fill="white" transform="translate(0 0.800049)"/>
    </clipPath>
  </defs>
</svg>