<svg xmlns="http://www.w3.org/2000/svg" width="16" height="16" viewBox="0 0 16 16" fill="none">
  <path d="M12 5.33332C12 4.27246 11.5786 3.25504 10.8284 2.5049C10.0783 1.75475 9.06087 1.33332 8 1.33332C6.93913 1.33332 5.92172 1.75475 5.17157 2.5049C4.42143 3.25504 4 4.27246 4 5.33332C4 9.99999 2 11.3333 2 11.3333H14C14 11.3333 12 9.99999 12 5.33332Z" stroke="#637381" stroke-linecap="round" stroke-linejoin="round"/>
  <path d="M9.15335 14C9.03614 14.2021 8.86791 14.3698 8.6655 14.4864C8.46309 14.6029 8.2336 14.6643 8.00001 14.6643C7.76643 14.6643 7.53694 14.6029 7.33453 14.4864C7.13212 14.3698 6.96389 14.2021 6.84668 14" stroke="#637381" stroke-linecap="round" stroke-linejoin="round"/>
</svg>