<svg xmlns="http://www.w3.org/2000/svg" width="16" height="17" viewBox="0 0 16 17" fill="none">
  <g clip-path="url(#clip0_9_146)">
    <path d="M14.3985 15.2297H1.62036C1.59223 15.2297 1.56567 15.2282 1.53755 15.2266C1.57973 15.2329 1.62036 15.2376 1.66255 15.2438C1.61411 15.2376 1.56723 15.2251 1.52036 15.2063L1.63286 15.2532C1.60473 15.2407 1.57817 15.2251 1.55161 15.211C1.47505 15.1688 1.5938 15.2391 1.58911 15.2422C1.58598 15.2438 1.55473 15.211 1.55161 15.2079C1.54223 15.1985 1.53442 15.1876 1.52348 15.1782C1.48598 15.1422 1.58911 15.2782 1.55317 15.2157C1.53598 15.186 1.5188 15.1563 1.50473 15.1251L1.55161 15.2376C1.53286 15.1907 1.52192 15.1454 1.51411 15.0954C1.52036 15.1376 1.52505 15.1782 1.5313 15.2204C1.52348 15.136 1.52817 15.0501 1.52817 14.9657V8.52349C1.52817 8.22349 1.52505 7.92193 1.52817 7.62193C1.52817 7.59693 1.52973 7.57349 1.5313 7.54849C1.52505 7.59068 1.52036 7.6313 1.51411 7.67349C1.52036 7.62505 1.53286 7.57818 1.55161 7.5313L1.50473 7.64381C1.51723 7.61568 1.53286 7.58912 1.54692 7.56255C1.58911 7.48599 1.5188 7.60474 1.51567 7.60006C1.51411 7.59693 1.54692 7.56568 1.55005 7.56255C1.55942 7.55318 1.57036 7.54537 1.57973 7.53443C1.61567 7.49693 1.47973 7.60005 1.54223 7.56412C1.57192 7.54693 1.60161 7.52974 1.63286 7.51568L1.52036 7.56255C1.56723 7.5438 1.61255 7.53287 1.66255 7.52505C1.62036 7.5313 1.57973 7.53599 1.53755 7.54224C1.66723 7.52974 1.80161 7.53912 1.9313 7.53912H14.3797C14.4079 7.53912 14.4344 7.54068 14.4625 7.54224C14.4204 7.53599 14.3797 7.5313 14.3375 7.52505C14.386 7.5313 14.4329 7.5438 14.4797 7.56255L14.3672 7.51568C14.3954 7.52818 14.4219 7.54381 14.4485 7.55787C14.525 7.60006 14.4063 7.52974 14.411 7.52662C14.4141 7.52506 14.4454 7.55787 14.4485 7.56099C14.4579 7.57037 14.4657 7.58131 14.4766 7.59068C14.5141 7.62662 14.411 7.49068 14.4469 7.55318C14.4641 7.58287 14.4813 7.61256 14.4954 7.64381L14.4485 7.5313C14.4672 7.57818 14.4782 7.62349 14.486 7.67349C14.4797 7.6313 14.475 7.59068 14.4688 7.54849C14.4766 7.63287 14.4719 7.71881 14.4719 7.80318V14.2454C14.4719 14.5454 14.475 14.8469 14.4719 15.1469C14.4719 15.1719 14.4704 15.1954 14.4688 15.2204C14.475 15.1782 14.4797 15.1376 14.486 15.0954C14.4797 15.1438 14.4672 15.1907 14.4485 15.2376L14.4954 15.1251C14.4829 15.1532 14.4672 15.1797 14.4532 15.2063C14.411 15.2829 14.4813 15.1641 14.4844 15.1688C14.486 15.1719 14.4532 15.2032 14.45 15.2063C14.4407 15.2157 14.4297 15.2235 14.4204 15.2344C14.3844 15.2719 14.5204 15.1688 14.4579 15.2047C14.4282 15.2219 14.3985 15.2391 14.3672 15.2532L14.4797 15.2063C14.4329 15.2251 14.3875 15.236 14.3375 15.2438C14.3797 15.2376 14.4204 15.2329 14.4625 15.2266C14.4407 15.2282 14.4204 15.2297 14.3985 15.2297C14.1532 15.2344 13.9188 15.4422 13.9297 15.6985C13.9407 15.9485 14.136 16.1719 14.3985 16.1672C14.9547 16.1563 15.4 15.7141 15.4094 15.1563V7.63287C15.4079 7.27818 15.2391 6.96724 14.9485 6.76724C14.7313 6.61724 14.4844 6.60318 14.2344 6.60318H1.66098C1.62817 6.60318 1.5938 6.60318 1.56098 6.60474C1.02192 6.63912 0.601609 7.07193 0.593796 7.61568C0.590671 7.75787 0.593796 7.90162 0.593796 8.04381V13.5032C0.593796 14.0485 0.590671 14.5938 0.593796 15.1391C0.595359 15.4985 0.770359 15.8188 1.07192 16.0141C1.23755 16.1219 1.43755 16.1657 1.63286 16.1672H14.4032C14.6485 16.1672 14.8829 15.9516 14.8719 15.6985C14.8547 15.4454 14.661 15.2297 14.3985 15.2297Z" fill="#637381"/>
    <path d="M13.6687 6.74224C13.5156 6.61411 13.3625 6.48599 13.2094 6.3563C12.8437 6.05005 12.4781 5.74224 12.1125 5.43599C11.6687 5.06255 11.2234 4.69067 10.7797 4.31724C10.3969 3.99692 10.014 3.67505 9.63279 3.35474C9.44529 3.19849 9.25935 3.03911 9.07185 2.88442C9.06873 2.88286 9.06716 2.87974 9.06404 2.87817C8.96716 2.79692 8.86404 2.74067 8.73279 2.74067C8.61716 2.74067 8.48123 2.79224 8.40154 2.87817C8.24216 3.05161 8.20154 3.37349 8.40154 3.54067C8.55466 3.6688 8.70779 3.79692 8.86091 3.92661C9.22654 4.23286 9.59216 4.54067 9.95779 4.84692C10.4015 5.22036 10.8468 5.59224 11.2906 5.96567C11.6734 6.28599 12.0562 6.60786 12.4375 6.92817C12.625 7.08442 12.8109 7.2438 12.9984 7.39849C13.0015 7.40005 13.0031 7.40317 13.0062 7.40474C13.1031 7.48599 13.2062 7.54224 13.3375 7.54224C13.4531 7.54224 13.589 7.49067 13.6687 7.40474C13.8281 7.2313 13.8703 6.90942 13.6687 6.74224ZM6.94216 2.86567C6.78904 2.9938 6.63591 3.12192 6.48279 3.25161C6.1156 3.55942 5.74841 3.8688 5.37966 4.17661C4.93435 4.55005 4.4906 4.92349 4.04529 5.29536C3.66091 5.61724 3.27654 5.94067 2.89216 6.26255C2.70623 6.4188 2.51248 6.57036 2.33123 6.73286C2.3281 6.73442 2.32654 6.73755 2.32341 6.73911C2.23591 6.81255 2.18591 6.96099 2.18591 7.07036C2.18591 7.18599 2.23748 7.32192 2.32341 7.40161C2.41248 7.48286 2.52966 7.5438 2.65466 7.53911C2.78435 7.53286 2.88591 7.48599 2.98591 7.40161C3.13904 7.27349 3.29216 7.14536 3.44529 7.01567C3.81248 6.70786 4.17966 6.39849 4.54841 6.09067C4.99373 5.71724 5.43748 5.3438 5.88279 4.97192C6.26716 4.65005 6.65154 4.32661 7.03591 4.00474C7.22185 3.84849 7.4156 3.69692 7.59685 3.53442C7.59998 3.53286 7.60154 3.52974 7.60466 3.52817C7.69216 3.45474 7.74216 3.3063 7.74216 3.19692C7.74216 3.0813 7.6906 2.94536 7.60466 2.86567C7.5156 2.78442 7.39841 2.72349 7.27341 2.72817C7.14373 2.73442 7.04216 2.78286 6.94216 2.86567Z" fill="#637381"/>
    <path d="M8.39218 2.7563C8.39218 2.79224 8.38906 2.82818 8.38593 2.86568C8.39218 2.82349 8.39687 2.78287 8.40312 2.74068C8.39218 2.82037 8.37187 2.89537 8.34062 2.9688L8.3875 2.8563C8.36562 2.9063 8.33906 2.95318 8.30937 2.99849C8.25156 3.08443 8.37968 2.92349 8.32187 2.98443C8.30625 3.00005 8.29218 3.01724 8.27656 3.03287C8.26093 3.04849 8.24375 3.06255 8.22656 3.07818C8.1625 3.13443 8.31718 3.01724 8.25 3.05943C8.20468 3.08755 8.16093 3.11412 8.11093 3.13599L8.22343 3.08912C8.15156 3.1188 8.07812 3.13912 8.00156 3.15162C8.04375 3.14537 8.08437 3.14068 8.12656 3.13443C8.04687 3.1438 7.96875 3.1438 7.89062 3.13443C7.93281 3.14068 7.97343 3.14537 8.01562 3.15162C7.93906 3.14068 7.86718 3.12037 7.79687 3.09068L7.90937 3.13755C7.86093 3.11568 7.81562 3.09224 7.77187 3.06255C7.72968 3.03443 7.72031 3.00005 7.79531 3.08287C7.77812 3.06412 7.75625 3.04849 7.7375 3.0313C7.71875 3.01255 7.70156 2.9938 7.68437 2.97505C7.63125 2.91724 7.74843 3.07037 7.70468 2.99849C7.675 2.95005 7.64687 2.90162 7.62343 2.84849L7.67031 2.96099C7.64062 2.88912 7.62187 2.81568 7.61093 2.73755C7.61718 2.77974 7.62187 2.82037 7.62812 2.86255C7.62031 2.79068 7.62031 2.72037 7.62812 2.64849C7.62187 2.69068 7.61718 2.7313 7.61093 2.77349C7.62187 2.69693 7.64062 2.62349 7.66875 2.55318L7.62187 2.66568C7.64375 2.61568 7.66875 2.56724 7.69843 2.52193C7.76093 2.42818 7.63437 2.59224 7.68593 2.53599C7.70156 2.5188 7.71718 2.50005 7.73437 2.48443C7.75156 2.46724 7.76875 2.45318 7.78593 2.43599C7.84218 2.38443 7.67812 2.51099 7.77187 2.44849C7.81718 2.4188 7.86562 2.3938 7.91562 2.37193L7.80312 2.4188C7.875 2.39068 7.94687 2.37037 8.02343 2.36099C7.98125 2.36724 7.94062 2.37193 7.89843 2.37818C7.97031 2.37037 8.04062 2.37037 8.1125 2.37818C8.07031 2.37193 8.02968 2.36724 7.9875 2.36099C8.06406 2.37193 8.1375 2.39068 8.20781 2.4188L8.09531 2.37193C8.14531 2.3938 8.19375 2.4188 8.23906 2.44849C8.33281 2.51099 8.16875 2.38443 8.225 2.43599C8.24218 2.45162 8.26093 2.46724 8.27656 2.48443C8.29375 2.50162 8.30781 2.5188 8.325 2.53599C8.37656 2.59224 8.25 2.42818 8.3125 2.52193C8.34218 2.56724 8.36718 2.61568 8.38906 2.66568L8.34218 2.55318C8.37031 2.62505 8.39062 2.69693 8.4 2.77349C8.39375 2.7313 8.38906 2.69068 8.38281 2.64849C8.38906 2.68443 8.39218 2.72037 8.39218 2.7563C8.39531 3.00162 8.60625 3.23599 8.86093 3.22505C9.1125 3.21412 9.33281 3.0188 9.32968 2.7563C9.32343 2.26568 9.04375 1.77662 8.58906 1.57037C8.31718 1.44693 8.04687 1.41255 7.75312 1.45943C7.51093 1.49849 7.2875 1.62505 7.10625 1.78599C6.72187 2.12818 6.57187 2.7313 6.76406 3.21099C6.87656 3.49224 7.05625 3.72349 7.31406 3.88599C7.53281 4.02505 7.81875 4.10005 8.07812 4.07818C8.40468 4.05162 8.7125 3.92662 8.94531 3.69068C9.19062 3.44224 9.325 3.1063 9.32968 2.75787C9.33281 2.51255 9.11093 2.27818 8.86093 2.28912C8.60468 2.29849 8.39687 2.4938 8.39218 2.7563Z" fill="#637381"/>
  </g>
  <defs>
    <clipPath id="clip0_9_146">
      <rect width="16" height="16" fill="white" transform="translate(0 0.800049)"/>
    </clipPath>
  </defs>
</svg>