<svg xmlns="http://www.w3.org/2000/svg" width="16" height="17" viewBox="0 0 16 17" fill="none">
  <path d="M12.2 9.28C13.1941 9.28 14 10.0322 14 10.96V11.52C14 13.728 11.7686 16 8 16C4.23141 16 2 13.728 2 11.52V10.96C2 10.0322 2.80589 9.28 3.8 9.28H12.2ZM12.2 10.4H3.8C3.46863 10.4 3.2 10.6507 3.2 10.96V11.52C3.2 13.1302 4.91859 14.88 8 14.88C11.0814 14.88 12.8 13.1302 12.8 11.52V10.96C12.8 10.6507 12.5314 10.4 12.2 10.4ZM8 2C9.82254 2 11.3 3.37896 11.3 5.08C11.3 6.78104 9.82254 8.16 8 8.16C6.17746 8.16 4.7 6.78104 4.7 5.08C4.7 3.37896 6.17746 2 8 2ZM8 3.12C6.8402 3.12 5.9 3.99752 5.9 5.08C5.9 6.16248 6.8402 7.04 8 7.04C9.1598 7.04 10.1 6.16248 10.1 5.08C10.1 3.99752 9.1598 3.12 8 3.12Z" fill="#637381"/>
</svg>