<svg width="172" height="26" viewBox="0 0 172 26" fill="none" xmlns="http://www.w3.org/2000/svg">
<path d="M54.6744 10.4338C57.6991 10.4338 59.5404 12.1498 59.0099 15.0589L58.0746 19.9156C57.513 22.8247 55.0809 24.3077 52.0546 24.3077H40.1713L41.0446 19.5675H51.1503C52.2423 19.5675 52.9279 18.9281 53.1776 17.6184L53.2707 17.1246C53.5204 15.8441 53.0829 15.2046 51.9926 15.2046H46.7838C42.406 15.3536 41.5604 15.0104 42.1219 12.1028L43.2907 6.01418C43.8522 3.10342 46.3154 1.62051 49.34 1.62051H61.2233L60.319 6.36063H50.2133C49.1213 6.36063 48.4357 7.00009 48.186 8.30977L47.9803 9.54337C47.7942 10.5778 48.2709 10.4613 49.4641 10.4321H54.6728L54.6744 10.4338Z" fill="black"/>
<path d="M66.5624 12.6145L76.8558 1.62061H82.9068L72.2396 12.9933L78.6024 24.3077H72.5514L66.4384 13.4013L64.38 24.3077H59.0472L63.319 1.62061H68.6518L66.5624 12.6145Z" fill="black"/>
<path d="M85.0076 24.3061H79.6748L83.9466 1.62061H89.2793L85.0059 24.3061H85.0076Z" fill="black"/>
<path d="M88.07 19.9157L91.5321 1.62061H96.8649L93.8402 17.6169C93.5056 19.4527 93.5056 19.566 95.1183 19.566H104.849L103.975 24.3061H92.4658C88.7931 24.3061 86.8653 24.863 88.0683 19.9141L88.07 19.9157Z" fill="black"/>
<path d="M105.513 19.9157L108.975 1.62061H114.308L111.283 17.6169C110.949 19.4527 110.949 19.566 112.561 19.566H122.292L121.418 24.3061H109.909C106.236 24.3061 104.308 24.863 105.511 19.9141L105.513 19.9157Z" fill="black"/>
<path d="M135.356 17.8791C135.169 18.8683 135.575 19.566 136.979 19.566H141.376C142.811 19.566 143.435 18.8683 143.622 17.8791L146.709 1.62061H152.042L148.705 19.3329C148.175 22.0963 146.335 24.3061 143.154 24.3061H133.673C130.492 24.3061 129.245 22.0963 129.775 19.3329L133.112 1.62061H138.445L135.356 17.8791Z" fill="black"/>
<path d="M167.567 1.62052H153.968L153.075 6.36063H164.852C165.944 6.36063 166.411 7.00009 166.194 8.28063L165.758 10.5196C165.509 11.8276 164.792 12.4687 163.7 12.4687H157.244L158.08 8.04266H152.759L149.695 24.306H155.028L156.369 17.2088H164.634C167.41 17.2088 169.749 15.9574 170.466 13.3979C170.559 12.9317 170.902 11.5071 170.996 10.9842L171.901 6.24407C172.462 3.33492 170.592 1.6189 167.565 1.6189L167.567 1.62052Z" fill="black"/>
<path d="M20.9883 0L20.3534 3.54537C20.3501 3.7963 20.3517 4.12008 20.3877 4.43576C20.5721 6.08541 21.6282 7.03246 23.285 7.03246H32.0277C32.9712 7.03246 33.4886 7.03246 33.7155 6.85277C33.9424 6.67307 34.0501 6.15179 34.228 5.28892C34.4892 4.01647 34.7357 2.76345 34.9952 1.43596C35.0866 0.966478 35.1797 0.492143 35.2744 0.01457C35.1764 0.00485667 35.1046 0 35.036 0C31.5331 0 28.0334 0 24.5321 0H20.9867H20.9883Z" fill="black"/>
<path d="M8.46844 16.4984C10.9251 16.4579 13.3638 16.4369 16.1191 16.4337L16.8944 12.0368C16.5647 10.3822 15.3176 9.24093 13.5466 8.97705H3.34624C3.23361 9.79621 3.21075 10.6283 3.27441 11.4572C3.53885 14.8552 5.28869 16.5535 8.46681 16.4984H8.46844Z" fill="black"/>
<path d="M18.2542 4.65917L19.0769 0H16.5207C14.8851 0 13.2495 0 11.6139 0C9.27809 0 7.35686 0.998856 5.9041 2.96743C4.93287 4.28197 4.21955 5.65317 3.78046 7.04865H15.5152C16.6611 6.5387 17.5833 5.73573 18.2558 4.65917H18.2542Z" fill="black"/>
<path d="M1.70903 18.9654C1.41522 18.9654 1.35645 19.0188 1.29606 19.341C1.08549 20.471 0.855333 21.6155 0.633338 22.7245C0.525605 23.2635 0.417873 23.801 0.311772 24.3401C0.225259 24.7788 0.142011 25.2176 0.057131 25.6741L0 25.9817C0.1061 25.9898 0.195878 25.9962 0.280758 25.9962H4.12812C7.56251 25.9995 10.9985 26.0011 14.4346 25.9995L15.6735 18.9767C11.0508 18.9767 6.57823 18.9735 1.71556 18.967H1.7123L1.70903 18.9654Z" fill="black"/>
<path d="M27.258 9.53846C26.8156 9.53684 26.3651 9.54655 25.9293 9.55788C25.0185 9.57893 24.0766 9.60159 23.1511 9.51094C21.7081 9.37171 20.5606 9.92375 19.5388 11.2512C19.1878 11.7062 18.925 12.2566 18.6916 12.7471L18.0322 16.4317C19.3054 16.4317 20.6063 16.4366 21.9726 16.4414H22.0868L22.1097 16.4608C22.4133 16.5337 22.8099 16.8299 22.8034 17.5908C22.7969 18.3679 22.3986 18.7402 22.1995 18.8778L22.1505 18.975H17.5784L16.3231 25.9945C18.783 25.9912 21.2429 25.988 23.7028 25.9783C24.5255 25.9751 25.3139 25.8407 25.9799 25.5914C29.2413 24.3659 30.5341 21.4697 31.5787 18.6059C31.5787 18.6059 31.7158 18.1914 31.8024 17.586C31.8677 17.1343 31.9232 16.5806 31.9509 16.2909L31.9672 16.1095C32.0309 15.0589 32.0341 13.8091 31.5722 12.5771C30.7887 10.4855 29.46 9.54817 27.2613 9.53684L27.258 9.53846Z" fill="black"/>
</svg>
