<svg xmlns="http://www.w3.org/2000/svg" width="138" height="21" viewBox="0 0 138 21" fill="none">
  <path d="M43.7396 8.34698C46.1593 8.34698 47.6323 9.7198 47.2079 12.0471L46.4597 15.9325C46.0105 18.2598 44.0647 19.4461 41.6437 19.4461H32.1371L32.8357 15.654H40.9202C41.7939 15.654 42.3423 15.1424 42.5421 14.0947L42.6165 13.6997C42.8163 12.6752 42.4664 12.1637 41.5941 12.1637H37.4271C33.9248 12.2828 33.2484 12.0083 33.6976 9.68224L34.6326 4.81132C35.0818 2.48271 37.0523 1.29639 39.4721 1.29639H48.9787L48.2552 5.08848H40.1707C39.2971 5.08848 38.7486 5.60005 38.5488 6.64779L38.3843 7.63467C38.2354 8.46225 38.6167 8.369 39.5713 8.34569H43.7383L43.7396 8.34698Z" fill="white"/>
  <path d="M53.2499 10.0916L61.4846 1.29649H66.3254L57.7917 10.3947L62.8819 19.4462H58.0411L53.1507 10.721L51.504 19.4462H47.2378L50.6552 1.29649H54.9214L53.2499 10.0916Z" fill="white"/>
  <path d="M68.0061 19.4449H63.7399L67.1573 1.29649H71.4235L68.0048 19.4449H68.0061Z" fill="white"/>
  <path d="M70.456 15.9326L73.2257 1.29649H77.492L75.0722 14.0935C74.8045 15.5622 74.8045 15.6528 76.0947 15.6528H83.8789L83.1802 19.4449H73.9727C71.0345 19.4449 69.4923 19.8904 70.4547 15.9313L70.456 15.9326Z" fill="white"/>
  <path d="M84.4104 15.9326L87.1801 1.29649H91.4463L89.0266 14.0935C88.7589 15.5622 88.7589 15.6528 90.049 15.6528H97.8332L97.1346 19.4449H87.927C84.9889 19.4449 83.4466 19.8904 84.4091 15.9313L84.4104 15.9326Z" fill="white"/>
  <path d="M108.285 14.3033C108.135 15.0946 108.46 15.6528 109.583 15.6528H113.101C114.249 15.6528 114.748 15.0946 114.898 14.3033L117.367 1.29649H121.634L118.964 15.4663C118.54 17.6771 117.068 19.4449 114.523 19.4449H106.939C104.394 19.4449 103.396 17.6771 103.82 15.4663L106.49 1.29649H110.756L108.285 14.3033Z" fill="white"/>
  <path d="M134.054 1.29642H123.175L122.46 5.08851H131.882C132.756 5.08851 133.129 5.60007 132.955 6.62451L132.607 8.41565C132.407 9.4621 131.834 9.97497 130.96 9.97497H125.795L126.464 6.43413H122.207L119.756 19.4448H124.022L125.095 13.7671H131.707C133.928 13.7671 135.8 12.7659 136.373 10.7184C136.447 10.3454 136.721 9.20567 136.797 8.78735L137.521 4.99526C137.97 2.66794 136.473 1.29512 134.052 1.29512L134.054 1.29642Z" fill="white"/>
  <path d="M16.7907 2.28882e-05L16.2828 2.83632C16.2802 3.03706 16.2815 3.29609 16.3102 3.54863C16.4578 4.86835 17.3026 5.62599 18.6281 5.62599H25.6222C26.377 5.62599 26.791 5.62599 26.9725 5.48224C27.154 5.33848 27.2402 4.92145 27.3825 4.23116C27.5914 3.2132 27.7886 2.21078 27.9963 1.14879C28.0694 0.773205 28.1438 0.393737 28.2196 0.0116789C28.1412 0.00390823 28.0838 2.28882e-05 28.0289 2.28882e-05C25.2265 2.28882e-05 22.4268 2.28882e-05 19.6258 2.28882e-05H16.7894H16.7907Z" fill="white"/>
  <path d="M6.77475 13.1988C8.74006 13.1664 10.691 13.1495 12.8953 13.147L13.5156 9.62943C13.2518 8.30582 12.2541 7.39277 10.8373 7.18166H2.67699C2.58688 7.83699 2.5686 8.50268 2.61953 9.16578C2.83108 11.8842 4.23095 13.2428 6.77345 13.1988H6.77475Z" fill="white"/>
  <path d="M14.6034 3.72736L15.2615 2.28882e-05H13.2166C11.9081 2.28882e-05 10.5997 2.28882e-05 9.2912 2.28882e-05C7.42252 2.28882e-05 5.88553 0.799108 4.72333 2.37396C3.94635 3.4256 3.37569 4.52256 3.02441 5.63894H12.4122C13.3289 5.23098 14.0667 4.58861 14.6047 3.72736H14.6034Z" fill="white"/>
  <path d="M1.36723 15.1723C1.13217 15.1723 1.08516 15.215 1.03685 15.4728C0.868391 16.3767 0.684266 17.2924 0.506671 18.1795C0.420484 18.6108 0.334298 19.0408 0.249418 19.4721C0.180208 19.823 0.113609 20.174 0.0457048 20.5392L0 20.7853C0.0848804 20.7918 0.156702 20.797 0.224607 20.797H3.3025C6.05001 20.7996 8.79883 20.8009 11.5476 20.7996L12.5388 15.1814C8.84062 15.1814 5.26258 15.1788 1.37245 15.1736H1.36984L1.36723 15.1723Z" fill="white"/>
  <path d="M21.8064 7.63079C21.4525 7.6295 21.0921 7.63727 20.7434 7.64633C20.0147 7.66317 19.2613 7.6813 18.5208 7.60877C17.3665 7.49739 16.4485 7.93903 15.631 9.00102C15.3502 9.36495 15.14 9.80529 14.9533 10.1977L14.4257 13.1454C15.4443 13.1454 16.485 13.1493 17.578 13.1532H17.6694L17.6877 13.1687C17.9306 13.227 18.2479 13.464 18.2427 14.0727C18.2375 14.6943 17.9189 14.9922 17.7595 15.1023L17.7204 15.18H14.0627L13.0585 20.7956C15.0264 20.793 16.9943 20.7904 18.9622 20.7827C19.6204 20.7801 20.2511 20.6726 20.7839 20.4731C23.393 19.4927 24.4272 17.1758 25.263 14.8847C25.263 14.8847 25.3727 14.5532 25.4419 14.0688C25.4941 13.7075 25.5385 13.2645 25.5607 13.0327L25.5738 12.8877C25.6247 12.0471 25.6273 11.0473 25.2577 10.0617C24.6309 8.38843 23.568 7.63856 21.809 7.6295L21.8064 7.63079Z" fill="white"/>
</svg>