<svg xmlns="http://www.w3.org/2000/svg" width="16" height="16" viewBox="0 0 16 16" fill="none">
<path d="M6.81006 4.94759C6.77135 4.94838 6.73269 4.94418 6.69506 4.93508L4.25006 4.35758C4.18589 4.3429 4.12525 4.31568 4.07162 4.2775C4.01799 4.23931 3.97244 4.19092 3.93756 4.13508C3.9023 4.07819 3.87882 4.0148 3.86851 3.94867C3.85821 3.88254 3.86128 3.81501 3.87756 3.75008L4.45506 1.30508C4.49048 1.18178 4.57193 1.0768 4.68258 1.01188C4.79323 0.94695 4.9246 0.927038 5.04952 0.956261C5.17444 0.985483 5.28335 1.0616 5.35371 1.16888C5.42408 1.27615 5.45051 1.40636 5.42756 1.53258L4.96506 3.50008L6.92506 3.96258C7.04289 3.99207 7.14596 4.06345 7.21501 4.16338C7.28407 4.26331 7.31438 4.38496 7.3003 4.50561C7.28621 4.62626 7.22869 4.73765 7.13847 4.81898C7.04826 4.90032 6.93152 4.94603 6.81006 4.94759Z" fill="#7A7A7A"/>
<path d="M8.01506 13.9999C7.03638 13.9991 6.07269 13.7594 5.20768 13.3016C4.34266 12.8438 3.60248 12.1818 3.05139 11.373C2.5003 10.5642 2.15496 9.63316 2.04538 8.66064C1.9358 7.68811 2.06527 6.70353 2.42256 5.7924C2.49006 5.6199 2.56506 5.4499 2.64756 5.2924C2.70823 5.17405 2.81343 5.08464 2.94001 5.04386C3.0666 5.00307 3.20421 5.01423 3.32256 5.0749C3.44091 5.13557 3.53032 5.24077 3.57111 5.36736C3.6119 5.49394 3.60073 5.63155 3.54006 5.7499C3.47256 5.8874 3.40756 6.0274 3.35006 6.1724C2.888 7.36448 2.90014 8.68827 3.38399 9.87167C3.86783 11.0551 4.78661 12.0082 5.95148 12.5351C7.11636 13.062 8.43881 13.1226 9.64703 12.7046C10.8552 12.2865 11.8574 11.4215 12.4476 10.2874L12.4601 10.2599C12.5276 10.1249 12.5926 9.9849 12.6501 9.8399C13.0587 8.7974 13.1056 7.6479 12.7832 6.57557C12.4609 5.50324 11.7879 4.57016 10.8721 3.92583C9.95632 3.2815 8.85076 2.96322 7.73257 3.02198C6.61437 3.08074 5.54826 3.51314 4.70506 4.2499C4.6568 4.29879 4.59898 4.33722 4.53522 4.36277C4.47145 4.38833 4.4031 4.40047 4.33444 4.39844C4.26577 4.39641 4.19826 4.38025 4.13611 4.35097C4.07397 4.32169 4.01852 4.27992 3.97324 4.22826C3.92795 4.17661 3.89379 4.11617 3.8729 4.05073C3.85201 3.98529 3.84482 3.91624 3.8518 3.8479C3.85877 3.77956 3.87975 3.71339 3.91343 3.65351C3.94712 3.59364 3.99277 3.54135 4.04756 3.4999C5.05968 2.61806 6.3383 2.1011 7.67891 2.03171C9.01951 1.96232 10.3447 2.3445 11.4424 3.11714C12.5402 3.88978 13.3471 5.00823 13.7342 6.29361C14.1213 7.579 14.0661 8.95707 13.5776 10.2074C13.5101 10.3799 13.4351 10.5499 13.3526 10.7074L13.3376 10.7374C12.8379 11.7194 12.0761 12.544 11.1367 13.1198C10.1973 13.6956 9.1169 14.0002 8.01506 13.9999Z" fill="#7A7A7A"/>
</svg>